#N canvas -13 -13 2880 1836 24;
#X obj 383 1015 notein;
#X obj 490 1098 s velocity;
#X obj 518 1548 select 22 23 24 25 26 27 28 29 30 31 32 33 34 35 36
37 38 39 40 41 42 43 44 45 46 47 48 49 50 51 52 53 54 55 56 57 58 59
60 61 62 63 64 65 66 67 68 69 70 71 72 73 74 75 76 77 78 79 80 81 82
83 84 85 86 87 88 89 90 91 92 93 94 95 96 97 98 99 100 101 102 103
104 105 106 107 108, f 202;
#X obj 1274 419 + 1;
#X msg 1628 500 22 23 24 25 26 27 28 29 30 31 32 33 34 35 36 37 38
39 40 41 42 43 44 45 46 47 48 49 50 51 52 53 54 55 56 57 58 59 60 61
62 63 64 65 66 67 68 69 70 71 72 73 74 75 76 77 78 79 80 81 82 83 84
85 86 87 88 89 90 91 92 93 94 95 96 97 98 99 100 101 102 103 104 105
106 107 108;
#X obj 1272 996 random;
#X obj 1150 763 t l l;
#X obj 1301 905 list length;
#X obj 2101 207 loadbang;
#X obj 2109 268 s lb;
#X obj 1231 824 t b l;
#X obj 1334 628 bng 15 250 50 0 empty empty empty 17 7 0 10 -262144
-1 -1;
#X obj 1334 681 list store;
#X obj 1632 395 r lb;
#X obj 1105 1078 list-extract-index;
#X obj 1298 279 multiple-bang;
#X obj 1311 165 t b b;
#X obj 1483 424 spigot;
#X obj 1446 362 t b f;
#X obj 1274 353 -1;
#X obj 48 84 bng 800 250 50 0 empty empty empty 17 7 0 10 -262144 -1
-1;
#X obj 1343 497 == 88;
#X obj 1395 212 88;
#X text 357 7 REDISPATCH;
#X obj 1732 1292 + 1;
#X obj 1480 1140 t f b;
#X obj 22 1801 r n22;
#X obj 1404 1333 concat-string-float;
#X msg 1381 1225 n;
#X obj 1487 1422 s;
#X obj 1732 1226 21;
#X obj 1551 1233 t b f;
#X obj 1649 910 spigot;
#X obj 1612 848 t b f;
#X obj 1745 1096 21;
#X obj 12 1884 s note;
#X obj 2069 966 r note;
#X obj 2194 964 r velocity;
#X obj 2372 1030 1;
#X obj 2371 964 r lb;
#X obj 2200 1104 noteout;
#X text 1849 433 les 88 notes MIDI d'un piano;
#X obj 29 1844 f;
#X obj 111 1880 s note;
#X obj 128 1840 f;
#X obj 210 1884 s note;
#X obj 227 1844 f;
#X obj 309 1880 s note;
#X obj 326 1840 f;
#X obj 397 1881 s note;
#X obj 414 1841 f;
#X obj 496 1877 s note;
#X obj 513 1837 f;
#X obj 595 1881 s note;
#X obj 612 1841 f;
#X obj 694 1877 s note;
#X obj 711 1837 f;
#X obj 788 1875 s note;
#X obj 805 1835 f;
#X obj 887 1871 s note;
#X obj 904 1831 f;
#X obj 986 1875 s note;
#X obj 1003 1835 f;
#X obj 1208 1870 s note;
#X obj 1225 1830 f;
#X obj 1296 1871 s note;
#X obj 1313 1831 f;
#X obj 1395 1867 s note;
#X obj 1412 1827 f;
#X obj 1494 1871 s note;
#X obj 1511 1831 f;
#X obj 1593 1867 s note;
#X obj 1610 1827 f;
#X obj 1686 1867 s note;
#X obj 1703 1827 f;
#X obj 1785 1863 s note;
#X obj 1802 1823 f;
#X obj 1884 1867 s note;
#X obj 1901 1827 f;
#X obj 1983 1863 s note;
#X obj 2000 1823 f;
#X obj 2071 1864 s note;
#X obj 2088 1824 f;
#X obj 2170 1860 s note;
#X obj 2187 1820 f;
#X obj 2269 1864 s note;
#X obj 2286 1824 f;
#X obj 2368 1860 s note;
#X obj 2385 1820 f;
#X obj 2462 1858 s note;
#X obj 2479 1818 f;
#X obj 2561 1854 s note;
#X obj 2578 1814 f;
#X obj 2660 1858 s note;
#X obj 2677 1818 f;
#X obj 2759 1854 s note;
#X obj 2776 1814 f;
#X obj 2847 1855 s note;
#X obj 2864 1815 f;
#X obj 2946 1851 s note;
#X obj 2963 1811 f;
#X obj 3045 1855 s note;
#X obj 3062 1815 f;
#X obj 3144 1851 s note;
#X obj 3161 1811 f;
#X obj 16 2022 s note;
#X obj 33 1982 f;
#X obj 115 2018 s note;
#X obj 132 1978 f;
#X obj 214 2022 s note;
#X obj 231 1982 f;
#X obj 313 2018 s note;
#X obj 330 1978 f;
#X obj 401 2019 s note;
#X obj 418 1979 f;
#X obj 500 2015 s note;
#X obj 517 1975 f;
#X obj 599 2019 s note;
#X obj 616 1979 f;
#X obj 698 2015 s note;
#X obj 715 1975 f;
#X obj 792 2013 s note;
#X obj 809 1973 f;
#X obj 891 2009 s note;
#X obj 908 1969 f;
#X obj 990 2013 s note;
#X obj 1007 1973 f;
#X obj 1212 2008 s note;
#X obj 1229 1968 f;
#X obj 1300 2009 s note;
#X obj 1317 1969 f;
#X obj 1399 2005 s note;
#X obj 1416 1965 f;
#X obj 1498 2009 s note;
#X obj 1515 1969 f;
#X obj 1597 2005 s note;
#X obj 1614 1965 f;
#X obj 1690 2005 s note;
#X obj 1707 1965 f;
#X obj 1789 2001 s note;
#X obj 1806 1961 f;
#X obj 1888 2005 s note;
#X obj 1905 1965 f;
#X obj 1987 2001 s note;
#X obj 2004 1961 f;
#X obj 2075 2002 s note;
#X obj 2092 1962 f;
#X obj 2174 1998 s note;
#X obj 2191 1958 f;
#X obj 2273 2002 s note;
#X obj 2290 1962 f;
#X obj 2372 1998 s note;
#X obj 2389 1958 f;
#X obj 2466 1996 s note;
#X obj 2483 1956 f;
#X obj 2565 1992 s note;
#X obj 2582 1952 f;
#X obj 2664 1996 s note;
#X obj 2681 1956 f;
#X obj 2763 1992 s note;
#X obj 2780 1952 f;
#X obj 2851 1993 s note;
#X obj 2868 1953 f;
#X obj 2950 1989 s note;
#X obj 2967 1949 f;
#X obj 3049 1993 s note;
#X obj 3066 1953 f;
#X obj 3148 1989 s note;
#X obj 3165 1949 f;
#X obj 3250 1845 s note;
#X obj 3267 1805 f;
#X obj 3349 1841 s note;
#X obj 3366 1801 f;
#X obj 3448 1845 s note;
#X obj 3465 1805 f;
#X obj 3547 1841 s note;
#X obj 3564 1801 f;
#X obj 3641 1839 s note;
#X obj 3658 1799 f;
#X obj 3740 1835 s note;
#X obj 3757 1795 f;
#X obj 3839 1839 s note;
#X obj 3856 1799 f;
#X obj 3938 1835 s note;
#X obj 3955 1795 f;
#X obj 4026 1836 s note;
#X obj 4043 1796 f;
#X obj 4125 1832 s note;
#X obj 4142 1792 f;
#X obj 4224 1836 s note;
#X obj 4241 1796 f;
#X obj 3271 1943 f;
#X obj 3353 1979 s note;
#X obj 3370 1939 f;
#X obj 3469 1943 f;
#X obj 3551 1979 s note;
#X obj 3568 1939 f;
#X obj 3645 1977 s note;
#X obj 3662 1937 f;
#X obj 3744 1973 s note;
#X obj 3761 1933 f;
#X obj 3843 1977 s note;
#X obj 3860 1937 f;
#X obj 3942 1973 s note;
#X obj 3959 1933 f;
#X obj 4030 1974 s note;
#X obj 4047 1934 f;
#X obj 4129 1970 s note;
#X obj 4146 1930 f;
#X obj 3251 1990 s note;
#X obj 3451 1989 s note;
#X obj 26 1939 r n23;
#X obj 121 1797 r n24;
#X obj 125 1935 r n25;
#X obj 220 1801 r n26;
#X obj 224 1939 r n27;
#X obj 319 1795 r n28;
#X obj 323 1935 r n29;
#X obj 407 1798 r n30;
#X obj 411 1936 r n31;
#X obj 506 1791 r n32;
#X obj 510 1932 r n33;
#X obj 605 1798 r n34;
#X obj 609 1936 r n35;
#X obj 704 1794 r n36;
#X obj 708 1932 r n37;
#X obj 798 1790 r n38;
#X obj 802 1930 r n39;
#X obj 897 1788 r n40;
#X obj 901 1926 r n41;
#X obj 996 1792 r n42;
#X obj 1002 1930 r n43;
#X obj 1222 1787 r n46;
#X obj 1222 1923 r n47;
#X obj 1306 1788 r n48;
#X obj 1310 1926 r n49;
#X obj 1408 1784 r n50;
#X obj 1409 1922 r n51;
#X obj 1504 1788 r n52;
#X obj 1508 1926 r n53;
#X obj 1603 1784 r n54;
#X obj 1607 1922 r n55;
#X obj 1696 1784 r n56;
#X obj 1698 1920 r n57;
#X obj 1795 1778 r n58;
#X obj 1799 1918 r n59;
#X obj 1894 1784 r n60;
#X obj 1898 1922 r n61;
#X obj 1993 1780 r n62;
#X obj 1997 1918 r n63;
#X obj 2081 1781 r n64;
#X obj 2085 1919 r n65;
#X obj 2180 1777 r n66;
#X obj 2184 1915 r n67;
#X obj 2279 1781 r n68;
#X obj 2283 1919 r n69;
#X obj 2378 1777 r n70;
#X obj 2382 1915 r n71;
#X obj 2472 1775 r n72;
#X obj 2476 1913 r n73;
#X obj 2571 1771 r n74;
#X obj 2575 1906 r n75;
#X obj 2670 1775 r n76;
#X obj 2674 1913 r n77;
#X obj 2771 1771 r n78;
#X obj 2773 1909 r n79;
#X obj 2857 1772 r n80;
#X obj 2861 1910 r n81;
#X obj 2956 1768 r n82;
#X obj 2960 1906 r n83;
#X obj 3055 1772 r n84;
#X obj 3059 1910 r n85;
#X obj 3154 1768 r n86;
#X obj 3168 1898 r n87;
#X obj 3260 1762 r n88;
#X obj 3264 1900 r n89;
#X obj 3359 1758 r n90;
#X obj 3363 1896 r n91;
#X obj 3458 1762 r n92;
#X obj 3462 1900 r n93;
#X obj 3559 1760 r n94;
#X obj 3561 1896 r n95;
#X obj 3651 1756 r n96;
#X obj 3655 1894 r n97;
#X obj 3750 1752 r n98;
#X obj 3754 1890 r n99;
#X obj 3849 1756 r n100;
#X obj 3853 1894 r n101;
#X obj 3948 1752 r n102;
#X obj 3952 1890 r n103;
#X obj 4036 1753 r n104;
#X obj 4040 1891 r n105;
#X obj 4138 1749 r n106;
#X obj 4139 1887 r n107;
#X obj 4234 1753 r n108;
#X obj 1098 2015 s note;
#X obj 1115 1975 f;
#X obj 1108 1932 r n45;
#X obj 1093 1875 s note;
#X obj 1110 1835 f;
#X obj 1103 1790 r n44;
#X text 342 962 ENTREE PIANO;
#X obj 48 929 s redispatch;
#X obj 1308 114 r redispatch;
#X text 2166 888 SORTIE MIDI;
#X connect 0 0 2 0;
#X connect 0 1 1 0;
#X connect 2 0 42 0;
#X connect 2 1 106 0;
#X connect 2 2 44 0;
#X connect 2 3 108 0;
#X connect 2 4 46 0;
#X connect 2 5 110 0;
#X connect 2 6 48 0;
#X connect 2 7 112 0;
#X connect 2 8 50 0;
#X connect 2 9 114 0;
#X connect 2 10 52 0;
#X connect 2 11 116 0;
#X connect 2 12 54 0;
#X connect 2 13 118 0;
#X connect 2 14 56 0;
#X connect 2 15 120 0;
#X connect 2 16 58 0;
#X connect 2 17 60 0;
#X connect 2 18 124 0;
#X connect 2 19 62 0;
#X connect 2 20 126 0;
#X connect 2 21 299 0;
#X connect 2 22 296 0;
#X connect 2 23 64 0;
#X connect 2 24 128 0;
#X connect 2 25 66 0;
#X connect 2 26 130 0;
#X connect 2 27 68 0;
#X connect 2 28 132 0;
#X connect 2 29 70 0;
#X connect 2 30 134 0;
#X connect 2 31 72 0;
#X connect 2 32 136 0;
#X connect 2 33 74 0;
#X connect 2 34 138 0;
#X connect 2 35 76 0;
#X connect 2 36 140 0;
#X connect 2 37 78 0;
#X connect 2 38 142 0;
#X connect 2 39 80 0;
#X connect 2 40 144 0;
#X connect 2 41 82 0;
#X connect 2 42 146 0;
#X connect 2 43 84 0;
#X connect 2 44 148 0;
#X connect 2 45 86 0;
#X connect 2 46 150 0;
#X connect 2 47 88 0;
#X connect 2 48 152 0;
#X connect 2 49 90 0;
#X connect 2 50 154 0;
#X connect 2 51 92 0;
#X connect 2 52 156 0;
#X connect 2 53 94 0;
#X connect 2 54 158 0;
#X connect 2 55 122 0;
#X connect 2 56 96 0;
#X connect 2 57 160 0;
#X connect 2 58 98 0;
#X connect 2 59 162 0;
#X connect 2 60 100 0;
#X connect 2 61 164 0;
#X connect 2 62 102 0;
#X connect 2 63 166 0;
#X connect 2 64 104 0;
#X connect 2 65 168 0;
#X connect 2 66 170 0;
#X connect 2 67 191 0;
#X connect 2 68 172 0;
#X connect 2 69 193 0;
#X connect 2 70 174 0;
#X connect 2 71 194 0;
#X connect 2 72 176 0;
#X connect 2 73 196 0;
#X connect 2 74 178 0;
#X connect 2 75 198 0;
#X connect 2 76 180 0;
#X connect 2 77 200 0;
#X connect 2 78 182 0;
#X connect 2 79 202 0;
#X connect 2 80 184 0;
#X connect 2 81 204 0;
#X connect 2 82 186 0;
#X connect 2 83 206 0;
#X connect 2 84 188 0;
#X connect 2 85 208 0;
#X connect 2 86 190 0;
#X connect 3 0 19 1;
#X connect 3 0 11 0;
#X connect 3 0 21 0;
#X connect 4 0 12 1;
#X connect 5 0 14 1;
#X connect 6 0 14 0;
#X connect 6 1 10 0;
#X connect 7 0 5 1;
#X connect 8 0 9 0;
#X connect 10 0 5 0;
#X connect 10 1 7 0;
#X connect 11 0 12 0;
#X connect 12 0 6 0;
#X connect 13 0 4 0;
#X connect 14 0 12 1;
#X connect 14 1 25 0;
#X connect 15 0 19 0;
#X connect 16 0 15 0;
#X connect 16 1 22 0;
#X connect 17 0 4 0;
#X connect 18 0 17 0;
#X connect 18 1 17 1;
#X connect 19 0 3 0;
#X connect 20 0 302 0;
#X connect 21 0 18 0;
#X connect 21 0 33 0;
#X connect 22 0 15 1;
#X connect 24 0 30 1;
#X connect 24 0 31 0;
#X connect 25 0 29 0;
#X connect 25 1 30 0;
#X connect 26 0 42 1;
#X connect 27 1 29 1;
#X connect 28 0 27 0;
#X connect 30 0 24 0;
#X connect 31 0 28 0;
#X connect 31 1 27 1;
#X connect 32 0 34 0;
#X connect 33 0 32 0;
#X connect 33 1 32 1;
#X connect 34 0 30 1;
#X connect 36 0 40 0;
#X connect 37 0 40 1;
#X connect 38 0 40 2;
#X connect 39 0 38 0;
#X connect 42 0 35 0;
#X connect 44 0 43 0;
#X connect 46 0 45 0;
#X connect 48 0 47 0;
#X connect 50 0 49 0;
#X connect 52 0 51 0;
#X connect 54 0 53 0;
#X connect 56 0 55 0;
#X connect 58 0 57 0;
#X connect 60 0 59 0;
#X connect 62 0 61 0;
#X connect 64 0 63 0;
#X connect 66 0 65 0;
#X connect 68 0 67 0;
#X connect 70 0 69 0;
#X connect 72 0 71 0;
#X connect 74 0 73 0;
#X connect 76 0 75 0;
#X connect 78 0 77 0;
#X connect 80 0 79 0;
#X connect 82 0 81 0;
#X connect 84 0 83 0;
#X connect 86 0 85 0;
#X connect 88 0 87 0;
#X connect 90 0 89 0;
#X connect 92 0 91 0;
#X connect 94 0 93 0;
#X connect 96 0 95 0;
#X connect 98 0 97 0;
#X connect 100 0 99 0;
#X connect 102 0 101 0;
#X connect 104 0 103 0;
#X connect 106 0 105 0;
#X connect 108 0 107 0;
#X connect 110 0 109 0;
#X connect 112 0 111 0;
#X connect 114 0 113 0;
#X connect 116 0 115 0;
#X connect 118 0 117 0;
#X connect 120 0 119 0;
#X connect 122 0 121 0;
#X connect 124 0 123 0;
#X connect 126 0 125 0;
#X connect 128 0 127 0;
#X connect 130 0 129 0;
#X connect 132 0 131 0;
#X connect 134 0 133 0;
#X connect 136 0 135 0;
#X connect 138 0 137 0;
#X connect 140 0 139 0;
#X connect 142 0 141 0;
#X connect 144 0 143 0;
#X connect 146 0 145 0;
#X connect 148 0 147 0;
#X connect 150 0 149 0;
#X connect 152 0 151 0;
#X connect 154 0 153 0;
#X connect 156 0 155 0;
#X connect 158 0 157 0;
#X connect 160 0 159 0;
#X connect 162 0 161 0;
#X connect 164 0 163 0;
#X connect 166 0 165 0;
#X connect 168 0 167 0;
#X connect 170 0 169 0;
#X connect 172 0 171 0;
#X connect 174 0 173 0;
#X connect 176 0 175 0;
#X connect 178 0 177 0;
#X connect 180 0 179 0;
#X connect 182 0 181 0;
#X connect 184 0 183 0;
#X connect 186 0 185 0;
#X connect 188 0 187 0;
#X connect 190 0 189 0;
#X connect 191 0 209 0;
#X connect 193 0 192 0;
#X connect 194 0 210 0;
#X connect 196 0 195 0;
#X connect 198 0 197 0;
#X connect 200 0 199 0;
#X connect 202 0 201 0;
#X connect 204 0 203 0;
#X connect 206 0 205 0;
#X connect 208 0 207 0;
#X connect 211 0 106 1;
#X connect 212 0 44 1;
#X connect 213 0 108 1;
#X connect 214 0 46 1;
#X connect 215 0 110 1;
#X connect 216 0 48 1;
#X connect 217 0 112 1;
#X connect 218 0 50 1;
#X connect 219 0 114 1;
#X connect 220 0 52 1;
#X connect 221 0 116 1;
#X connect 222 0 54 1;
#X connect 223 0 118 1;
#X connect 224 0 56 1;
#X connect 225 0 120 1;
#X connect 226 0 58 1;
#X connect 227 0 122 1;
#X connect 228 0 60 1;
#X connect 229 0 124 1;
#X connect 230 0 62 1;
#X connect 231 0 126 1;
#X connect 232 0 64 1;
#X connect 233 0 128 1;
#X connect 234 0 66 1;
#X connect 235 0 130 1;
#X connect 236 0 68 1;
#X connect 237 0 132 1;
#X connect 238 0 70 1;
#X connect 239 0 134 1;
#X connect 240 0 72 1;
#X connect 241 0 136 1;
#X connect 242 0 74 1;
#X connect 243 0 138 1;
#X connect 244 0 76 1;
#X connect 245 0 140 1;
#X connect 246 0 78 1;
#X connect 247 0 142 1;
#X connect 248 0 80 1;
#X connect 249 0 144 1;
#X connect 250 0 82 1;
#X connect 251 0 146 1;
#X connect 252 0 84 1;
#X connect 253 0 148 1;
#X connect 254 0 86 1;
#X connect 255 0 150 1;
#X connect 256 0 88 1;
#X connect 257 0 152 1;
#X connect 258 0 90 1;
#X connect 259 0 154 1;
#X connect 260 0 92 1;
#X connect 261 0 156 1;
#X connect 262 0 94 1;
#X connect 263 0 158 1;
#X connect 264 0 96 1;
#X connect 265 0 160 1;
#X connect 266 0 98 1;
#X connect 267 0 162 1;
#X connect 268 0 100 1;
#X connect 269 0 164 1;
#X connect 270 0 102 1;
#X connect 271 0 166 1;
#X connect 272 0 104 1;
#X connect 273 0 168 1;
#X connect 274 0 170 1;
#X connect 275 0 191 1;
#X connect 276 0 172 1;
#X connect 277 0 193 1;
#X connect 278 0 174 1;
#X connect 279 0 194 1;
#X connect 280 0 176 1;
#X connect 281 0 196 1;
#X connect 282 0 178 1;
#X connect 283 0 198 1;
#X connect 284 0 180 1;
#X connect 285 0 200 1;
#X connect 286 0 182 1;
#X connect 287 0 202 1;
#X connect 288 0 184 1;
#X connect 289 0 204 1;
#X connect 290 0 186 1;
#X connect 291 0 206 1;
#X connect 292 0 188 1;
#X connect 293 0 208 1;
#X connect 294 0 190 1;
#X connect 296 0 295 0;
#X connect 297 0 296 1;
#X connect 299 0 298 0;
#X connect 300 0 299 1;
#X connect 303 0 16 0;
